<svg width="55" height="32" viewBox="0 0 55 32" fill="none" xmlns="http://www.w3.org/2000/svg">
<path d="M12.3582 23.8078C11.5989 23.8078 10.8983 23.3994 10.5242 22.7386L6.45297 15.5479H4.44875V21.6821C4.44875 22.8561 3.49704 23.8078 2.32305 23.8078C1.14906 23.8078 0.197357 22.8561 0.197357 21.6821V2.61157H8.15353C9.79335 2.61157 11.1902 2.90512 12.3442 3.49221C13.4981 4.05907 14.3585 4.83849 14.9254 5.83048C15.5125 6.80222 15.806 7.89544 15.806 9.11012C15.806 10.507 15.4011 11.7723 14.5914 12.906C13.7816 14.0195 12.577 14.7888 10.9777 15.2139L14.1732 20.6292C15.0023 22.0341 13.9895 23.8078 12.3582 23.8078ZM4.44875 12.3594H8.0017C9.15564 12.3594 10.016 12.0861 10.5829 11.5395C11.1497 10.9726 11.4332 10.1932 11.4332 9.20122C11.4332 8.22948 11.1497 7.48042 10.5829 6.95406C10.016 6.40745 9.15564 6.13415 8.0017 6.13415H4.44875V12.3594Z" fill="#3AB7A5"/>
<path d="M21.8073 4.9802C21.0583 4.9802 20.4307 4.74739 19.9246 4.28176C19.4387 3.79588 19.1958 3.19866 19.1958 2.4901C19.1958 1.78153 19.4387 1.19444 19.9246 0.728809C20.4307 0.242936 21.0583 0 21.8073 0C22.5564 0 23.1738 0.242936 23.6597 0.728809C24.1658 1.19444 24.4189 1.78153 24.4189 2.4901C24.4189 3.19866 24.1658 3.79588 23.6597 4.28176C23.1738 4.74739 22.5564 4.9802 21.8073 4.9802ZM21.777 6.98443C22.9509 6.98443 23.9027 7.93613 23.9027 9.11012V21.6821C23.9027 22.8561 22.9509 23.8078 21.777 23.8078C20.603 23.8078 19.6513 22.8561 19.6513 21.6821V9.11012C19.6513 7.93613 20.603 6.98443 21.777 6.98443Z" fill="#3AB7A5"/>
<path d="M35.8163 8.73053C35.8163 9.69488 35.0345 10.4766 34.0702 10.4766H32.8707V21.6517C32.8707 22.8425 31.9054 23.8078 30.7146 23.8078C29.5238 23.8078 28.5585 22.8425 28.5585 21.6517V10.4766H28.3915C27.4272 10.4766 26.6454 9.69488 26.6454 8.73053C26.6454 7.76619 27.4272 6.98443 28.3915 6.98443H28.5585V6.13415C28.5585 4.06919 29.1456 2.55083 30.3198 1.57909C31.3358 0.738311 32.7988 0.283997 34.7089 0.216146C35.2232 0.197877 35.6341 0.622894 35.6341 1.13752V2.82812C35.6341 3.35951 35.1947 3.7712 34.6684 3.84487C34.1385 3.91904 33.7417 4.07479 33.478 4.31212C33.0731 4.67653 32.8707 5.33448 32.8707 6.28598V6.98443H34.0702C35.0345 6.98443 35.8163 7.76619 35.8163 8.73053Z" fill="#3AB7A5"/>
<path d="M37.4782 15.3657C37.4782 13.6854 37.8223 12.1974 38.5106 10.9018C39.2192 9.58587 40.1707 8.56351 41.3651 7.8347C42.5596 7.1059 43.8755 6.74149 45.3129 6.74149C46.5073 6.74149 47.56 6.9743 48.471 7.43993C49.2591 7.81684 49.9167 8.28799 50.4438 8.85338C50.5387 8.95517 50.7182 8.89032 50.7182 8.75115C50.7182 7.77541 51.5092 6.98443 52.4849 6.98443H52.8591C54.0415 6.98443 55 7.94293 55 9.12531V29.6838C55 30.8662 54.0415 31.8247 52.8591 31.8247C51.6767 31.8247 50.7182 30.8662 50.7182 29.6838V23.3438C50.7182 22.7414 49.8737 22.413 49.3806 22.759C49.0915 22.9619 48.7782 23.1496 48.4407 23.3219C47.4892 23.8078 46.4162 24.0507 45.2218 24.0507C43.8046 24.0507 42.4988 23.6863 41.3044 22.9575C40.1302 22.2085 39.199 21.176 38.5106 19.8601C37.8223 18.5442 37.4782 17.0461 37.4782 15.3657ZM50.7182 15.3961C50.7182 14.3636 50.5056 13.4729 50.0805 12.7238C49.6554 11.9747 49.0986 11.4079 48.4103 11.0232C47.7422 10.6386 47.0235 10.4463 46.2542 10.4463C45.5052 10.4463 44.7865 10.6386 44.0982 11.0232C43.4301 11.4079 42.8835 11.9747 42.4584 12.7238C42.0332 13.4526 41.8206 14.3333 41.8206 15.3657C41.8206 16.3982 42.0332 17.2991 42.4584 18.0684C42.8835 18.8175 43.4301 19.3843 44.0982 19.769C44.7865 20.1536 45.5052 20.3459 46.2542 20.3459C47.0235 20.3459 47.7422 20.1536 48.4103 19.769C49.0986 19.3843 49.6554 18.8175 50.0805 18.0684C50.5056 17.3194 50.7182 16.4286 50.7182 15.3961Z" fill="#3AB7A5"/>
<path d="M0 6.09399H8.85706C10.4294 6.09399 11.704 7.3686 11.704 8.94091V9.57356C11.704 11.1459 10.4294 12.4205 8.85706 12.4205H0V6.09399Z" fill="white"/>
<g clip-path="url(#clip0_586_4184)">
<path d="M10.0697 8.57158C10.0697 8.71604 10.0157 8.84858 9.916 8.94505C9.81615 9.04153 9.67359 9.09879 9.50162 9.09879C9.33048 9.09879 9.15872 9.04227 9.02871 8.95012C8.89933 8.85838 8.80444 8.72553 8.80444 8.57158C8.80444 8.41764 8.89933 8.28478 9.02871 8.19305C9.15872 8.10089 9.33048 8.04438 9.50151 8.04438C9.67359 8.04438 9.81615 8.10163 9.916 8.19821C10.0157 8.29459 10.0697 8.42713 10.0697 8.57158ZM9.12076 7.41173C9.12076 7.55618 9.06678 7.68872 8.96703 7.7852C8.86718 7.88168 8.72462 7.93893 8.55264 7.93893C8.38151 7.93893 8.20975 7.88242 8.07974 7.79026C7.95036 7.69853 7.85547 7.56567 7.85547 7.41173C7.85547 7.25778 7.95036 7.12493 8.07974 7.03319C8.20975 6.94104 8.38162 6.88452 8.55254 6.88452C8.72462 6.88452 8.86718 6.94178 8.96703 7.03836C9.06678 7.13473 9.12076 7.26727 9.12076 7.41173ZM8.38267 9.25695C8.38267 8.50579 7.74317 7.88347 6.94129 7.68756C6.58553 7.60068 6.20394 7.73322 6.02311 8.06009C5.87929 8.31979 5.74664 8.70844 5.74664 9.25684C5.74664 9.80535 5.87929 10.194 6.02311 10.4538C6.20394 10.7806 6.58553 10.9131 6.94119 10.8262C7.74317 10.6304 8.38267 10.008 8.38267 9.25695ZM9.12076 11.1022C9.12076 10.9577 9.06678 10.8252 8.96703 10.7288C8.86718 10.6322 8.72462 10.575 8.55264 10.575C8.38151 10.575 8.20975 10.6315 8.07974 10.7236C7.95036 10.8154 7.85547 10.9482 7.85547 11.1022C7.85547 11.2561 7.95036 11.389 8.07974 11.4807C8.20975 11.5729 8.38151 11.6294 8.55254 11.6294C8.72462 11.6294 8.86718 11.5721 8.96703 11.4756C9.06678 11.3792 9.12076 11.2466 9.12076 11.1022ZM10.0697 9.94232C10.0697 9.79786 10.0157 9.66532 9.916 9.56895C9.81615 9.47237 9.67359 9.41511 9.50162 9.41511C9.33048 9.41511 9.15872 9.47163 9.02871 9.56378C8.89933 9.65552 8.80444 9.78837 8.80444 9.94232C8.80444 10.0963 8.89933 10.2291 9.02871 10.3209C9.15872 10.413 9.33048 10.4695 9.50151 10.4695C9.67359 10.4695 9.81615 10.4123 9.916 10.3158C10.0157 10.2193 10.0697 10.0868 10.0697 9.94232Z" fill="#3AB7A5"/>
<path d="M10.0697 8.57158C10.0697 8.71604 10.0157 8.84858 9.916 8.94505C9.81615 9.04153 9.67359 9.09879 9.50162 9.09879C9.33048 9.09879 9.15872 9.04227 9.02871 8.95012C8.89933 8.85838 8.80444 8.72553 8.80444 8.57158C8.80444 8.41764 8.89933 8.28478 9.02871 8.19305C9.15872 8.10089 9.33048 8.04438 9.50151 8.04438C9.67359 8.04438 9.81615 8.10163 9.916 8.19821C10.0157 8.29459 10.0697 8.42713 10.0697 8.57158ZM9.12076 7.41173C9.12076 7.55618 9.06678 7.68872 8.96703 7.7852C8.86718 7.88168 8.72462 7.93893 8.55264 7.93893C8.38151 7.93893 8.20975 7.88242 8.07974 7.79026C7.95036 7.69853 7.85547 7.56567 7.85547 7.41173C7.85547 7.25778 7.95036 7.12493 8.07974 7.03319C8.20975 6.94104 8.38162 6.88452 8.55254 6.88452C8.72462 6.88452 8.86718 6.94178 8.96703 7.03836C9.06678 7.13473 9.12076 7.26727 9.12076 7.41173ZM8.38267 9.25695C8.38267 8.50579 7.74317 7.88347 6.94129 7.68756C6.58553 7.60068 6.20394 7.73322 6.02311 8.06009C5.87929 8.31979 5.74664 8.70844 5.74664 9.25684C5.74664 9.80535 5.87929 10.194 6.02311 10.4538C6.20394 10.7806 6.58553 10.9131 6.94119 10.8262C7.74317 10.6304 8.38267 10.008 8.38267 9.25695ZM9.12076 11.1022C9.12076 10.9577 9.06678 10.8252 8.96703 10.7288C8.86718 10.6322 8.72462 10.575 8.55264 10.575C8.38151 10.575 8.20975 10.6315 8.07974 10.7236C7.95036 10.8154 7.85547 10.9482 7.85547 11.1022C7.85547 11.2561 7.95036 11.389 8.07974 11.4807C8.20975 11.5729 8.38151 11.6294 8.55254 11.6294C8.72462 11.6294 8.86718 11.5721 8.96703 11.4756C9.06678 11.3792 9.12076 11.2466 9.12076 11.1022ZM10.0697 9.94232C10.0697 9.79786 10.0157 9.66532 9.916 9.56895C9.81615 9.47237 9.67359 9.41511 9.50162 9.41511C9.33048 9.41511 9.15872 9.47163 9.02871 9.56378C8.89933 9.65552 8.80444 9.78837 8.80444 9.94232C8.80444 10.0963 8.89933 10.2291 9.02871 10.3209C9.15872 10.413 9.33048 10.4695 9.50151 10.4695C9.67359 10.4695 9.81615 10.4123 9.916 10.3158C10.0157 10.2193 10.0697 10.0868 10.0697 9.94232Z" fill="#3AB7A5"/>
</g>
<circle cx="46.0252" cy="15.4253" r="6.48464" fill="#3AB7A5"/>
<path d="M48.2896 11.809C49.1732 12.324 49.7948 13.3696 49.7674 14.5893C49.7092 17.165 46.1833 19.063 45.5506 19.063C44.918 19.063 41.3916 17.165 41.3338 14.5893C41.3064 13.3696 41.9281 12.3244 42.8117 11.809C43.6383 11.3278 44.6767 11.3249 45.5506 12.0355C46.4245 11.3249 47.4629 11.3274 48.2896 11.809Z" fill="white"/>
<defs>
<clipPath id="clip0_586_4184">
<rect width="5.06118" height="5.06118" fill="white" transform="matrix(0 1 -1 0 10.4388 6.72583)"/>
</clipPath>
</defs>
</svg>
