<svg width="150" height="150" viewBox="0 0 150 150" fill="none" xmlns="http://www.w3.org/2000/svg">
<path d="M150 62.5998C150 72.347 141.946 80.2487 132.011 80.2487C122.076 80.2487 114.022 72.347 114.022 62.5998C114.022 52.8526 122.076 44.9509 132.011 44.9509C141.946 44.9509 150 52.8526 150 62.5998ZM123.017 62.5998C123.017 67.4734 127.044 71.4243 132.011 71.4243C136.979 71.4243 141.006 67.4734 141.006 62.5998C141.006 57.7262 136.979 53.7753 132.011 53.7753C127.044 53.7753 123.017 57.7262 123.017 62.5998Z" fill="#3AB7A5"/>
<path d="M35.9779 62.5998C35.9779 72.347 27.9239 80.2487 17.9889 80.2487C8.05392 80.2487 0 72.347 0 62.5998C0 52.8526 8.05392 44.9509 17.9889 44.9509C27.9239 44.9509 35.9779 52.8526 35.9779 62.5998ZM8.99446 62.5998C8.99446 67.4734 13.0214 71.4243 17.9889 71.4243C22.9564 71.4243 26.9834 67.4734 26.9834 62.5998C26.9834 57.7262 22.9564 53.7753 17.9889 53.7753C13.0214 53.7753 8.99446 57.7262 8.99446 62.5998Z" fill="#3AB7A5"/>
<path d="M69.7418 29.7457C69.7418 39.4929 61.6879 47.3946 51.7528 47.3946C41.8178 47.3946 33.7639 39.4929 33.7639 29.7457C33.7639 19.9985 41.8178 12.0968 51.7528 12.0968C61.6879 12.0968 69.7418 19.9985 69.7418 29.7457ZM42.7584 29.7457C42.7584 34.6193 46.7853 38.5701 51.7528 38.5701C56.7204 38.5701 60.7473 34.6193 60.7473 29.7457C60.7473 24.8721 56.7204 20.9212 51.7528 20.9212C46.7853 20.9212 42.7584 24.8721 42.7584 29.7457Z" fill="#3AB7A5"/>
<path d="M116.79 29.7457C116.79 39.4929 108.736 47.3946 98.8007 47.3946C88.8657 47.3946 80.8118 39.4929 80.8118 29.7457C80.8118 19.9985 88.8657 12.0968 98.8007 12.0968C108.736 12.0968 116.79 19.9985 116.79 29.7457ZM89.8062 29.7457C89.8062 34.6193 93.8332 38.5701 98.8007 38.5701C103.768 38.5701 107.795 34.6193 107.795 29.7457C107.795 24.8721 103.768 20.9212 98.8007 20.9212C93.8332 20.9212 89.8062 24.8721 89.8062 29.7457Z" fill="#3AB7A5"/>
<path d="M75.7346 47.9039C83.3921 48.011 87.6871 49.8164 93.6838 55.6998L120.73 82.235C121.245 82.7402 121.74 83.258 122.215 83.7867C133.97 96.8707 133.474 116.842 120.73 129.345C108.139 141.698 87.8857 141.949 74.9836 130.099C62.0801 141.918 41.8503 141.656 29.2708 129.315C16.5368 116.822 16.031 96.8732 27.7551 83.7887L27.6174 83.6539L56.1106 55.6998C56.6174 55.2027 57.1986 54.7236 57.8381 54.2633C61.8357 50.795 67.216 47.8981 74.9836 47.8981L75.7346 47.9039ZM78.3655 57.3639C73.2252 56.1793 67.5963 57.5536 63.5881 61.486L34.9026 89.6295C25.7162 98.6426 25.716 113.255 34.9026 122.268L36.4729 123.809C45.0922 132.265 58.736 132.787 67.9758 125.376C68.1856 125.207 68.3918 125.033 68.5969 124.857L52.9934 109.392V109.391C51.3222 107.756 50.005 105.794 49.1243 103.628C48.2383 101.448 47.8124 99.1083 47.8743 96.7565C47.9362 94.4047 48.4843 92.0903 49.4836 89.9606C50.483 87.8309 51.9126 85.9307 53.6819 84.3805C55.4514 82.8303 57.5232 81.6628 59.7659 80.9528C62.0085 80.2428 64.3741 80.0059 66.7131 80.2555C69.0523 80.5052 71.3152 81.2365 73.3577 82.4039C73.8733 82.6987 74.3716 83.0204 74.8518 83.3658C75.3282 83.0271 75.8234 82.7126 76.3342 82.4235C78.3751 81.2685 80.6327 80.5473 82.9651 80.3053C85.2976 80.0634 87.6554 80.3056 89.8899 81.0172C92.1245 81.7289 94.1881 82.8948 95.9514 84.441C97.7148 85.9873 99.1398 87.8811 100.138 90.0035C101.136 92.1259 101.686 94.4316 101.752 96.776C101.819 99.1201 101.401 101.453 100.526 103.629C99.6498 105.804 98.3348 107.777 96.6624 109.421C96.595 109.487 96.5246 109.55 96.4543 109.611L80.9983 124.928C90.2395 132.812 104.257 132.442 113.049 123.817L114.619 122.277C123.806 113.264 123.806 98.6504 114.619 89.6373L85.9338 61.4938C83.7721 59.373 81.139 57.9963 78.3655 57.3639ZM65.7229 89.5358C64.666 89.423 63.5968 89.5313 62.5833 89.8522C61.57 90.173 60.6333 90.7002 59.8333 91.401C59.0333 92.1019 58.3861 92.9618 57.9338 93.9254C57.4817 94.8891 57.2334 95.9371 57.2053 97.0016C57.1774 98.0662 57.3699 99.1256 57.7708 100.112C58.1216 100.975 58.6252 101.766 59.2561 102.448L59.5344 102.734L59.5637 102.762L74.8342 117.897L90.1057 102.762C90.1599 102.709 90.2147 102.656 90.2708 102.605C90.954 101.894 91.4984 101.06 91.8674 100.143C92.2638 99.1586 92.4522 98.1019 92.4221 97.0406C92.3919 95.9794 92.1433 94.9356 91.6917 93.9752C91.24 93.0147 90.5955 92.1579 89.7981 91.4586C89.0007 90.7594 88.0677 90.2324 87.0579 89.9108C86.048 89.5892 84.982 89.4802 83.928 89.5895C82.8742 89.6989 81.8534 90.0245 80.9309 90.5465C80.0086 91.0686 79.2029 91.7757 78.5657 92.6237C77.6814 93.8003 76.2934 94.492 74.8215 94.4879C73.3497 94.4837 71.9658 93.7848 71.0881 92.6031C70.4535 91.7487 69.6491 91.0352 68.7258 90.5074C67.8025 89.9797 66.7799 89.6486 65.7229 89.5358Z" fill="#3AB7A5"/>
</svg>
